<svg width="1920" height="1009" viewBox="0 0 1920 1009" fill="none" xmlns="http://www.w3.org/2000/svg">
<g clip-path="url(#clip0_1088_6296)">
<rect width="1920" height="1009" fill="white"/>
<path d="M0.5 -0.657959H1920.5V899.173C1920.5 899.173 1629.5 1013.28 1466.5 992.905C1303.5 972.529 1157.04 871.349 918.5 871.053C679.957 870.757 678.5 972.529 378.5 972.529C78.5 972.529 0.5 899.173 0.5 899.173V-0.657959Z" fill="#1F1915"/>
<path d="M-3 299.342C-3 299.342 235.152 171.527 414.5 214.842C593.848 258.158 815.085 433.022 773 521.342C730.915 609.663 558.136 553.287 482.5 615.342C406.864 677.397 399.3 823.24 257.5 851.342C115.7 879.444 -3 808.342 -3 808.342" stroke="#F5B860" stroke-opacity="0.5" stroke-width="2" stroke-dasharray="10 10"/>
<path d="M1091.6 -0.147829C1091.6 -0.147829 1285.39 162.112 1392 167.852C1498.61 173.592 1565.02 51.7077 1640 71.842C1714.98 91.9763 1792.29 178.957 1836.5 186.842C1880.71 194.727 1919.6 167.852 1919.6 167.852" stroke="#F5B860" stroke-opacity="0.5" stroke-width="2" stroke-dasharray="10 10"/>
</g>
<defs>
<clipPath id="clip0_1088_6296">
<rect width="1920" height="1009" fill="white"/>
</clipPath>
</defs>
</svg>
