<svg width="36" height="36" viewBox="0 0 36 36" fill="none" xmlns="http://www.w3.org/2000/svg">
<path fill-rule="evenodd" clip-rule="evenodd" d="M16.5 21.7498H20.25C20.2505 22.0453 20.2897 22.3311 20.3677 22.6071C20.2026 22.6752 20.0713 22.8059 20.0024 22.9707C19.9335 23.1354 19.9327 23.3208 20.0002 23.4861L20.0287 23.5566C20.104 23.7407 20.2493 23.8873 20.4327 23.9642C20.6162 24.0412 20.8226 24.0421 21.0067 23.9668L21.09 23.9323C21.3495 24.2338 21.6615 24.5023 22.0147 24.7273C21.819 25.0926 21.9525 25.5523 22.3177 25.7488C22.4929 25.8429 22.6984 25.8635 22.8888 25.8061C23.0793 25.7488 23.2391 25.6181 23.3332 25.4428L23.3955 25.3273C23.8906 25.4567 24.4019 25.5141 24.9135 25.4976L24.933 25.5988C24.9496 25.6974 24.9859 25.7917 25.0395 25.876C25.0931 25.9604 25.1631 26.0332 25.2453 26.0902C25.3274 26.1471 25.4202 26.1871 25.518 26.2077C25.6159 26.2282 25.7168 26.2291 25.815 26.2101C25.9131 26.1911 26.0065 26.1526 26.0896 26.097C26.1727 26.0414 26.2438 25.9697 26.2988 25.8862C26.3538 25.8027 26.3915 25.7091 26.4098 25.6108C26.4281 25.5125 26.4265 25.4115 26.4052 25.3138L26.3917 25.2426C27.0449 25.035 27.6431 24.6834 28.1422 24.2136L28.3755 27.0103C28.1901 27.0417 28.0232 27.1415 27.908 27.29C27.7927 27.4386 27.7375 27.625 27.7531 27.8123C27.7688 27.9997 27.8542 28.1743 27.9925 28.3016C28.1309 28.429 28.312 28.4997 28.5 28.4998H30.75V14.9998C30.7535 13.9817 30.4184 12.9912 29.7975 12.1843C30.2662 12.3103 30.5932 12.4941 30.825 12.7168C31.2427 13.1181 31.5 13.7938 31.5 14.9998L31.7902 19.0648C31.6132 19.3386 31.5 19.7676 31.5 20.2498C31.5 21.0786 31.8352 21.7498 32.25 21.7498C32.6647 21.7498 33 21.0786 33 20.2498C33 19.7676 32.886 19.3386 32.7097 19.0648L33 14.9998C33 13.6243 32.7127 12.4498 31.8645 11.6346C31.0267 10.8298 29.7975 10.5268 28.2847 10.5013C28.2277 10.4998 26.667 10.4998 26.625 10.4998V10.5051C26.5555 10.5017 26.486 10.5 26.4165 10.4998H15.375C13.9237 10.4998 12.8287 10.2838 11.9092 9.99883L11.7952 9.84433C12.2977 9.71683 12.804 9.51283 13.1677 9.24433C14.1195 8.54383 14.673 7.13458 13.4535 7.28908C13.0995 7.33408 12.843 7.34308 12.6345 7.35058C12.1252 7.36783 11.8995 7.37608 11.2245 7.87333C10.9492 8.07583 10.7077 8.29333 10.5112 8.50858C9.46195 7.72858 8.0647 7.37983 5.62495 7.49983C5.5255 7.49983 5.43012 7.53934 5.35979 7.60967C5.28946 7.67999 5.24995 7.77538 5.24995 7.87483C5.24995 7.97429 5.28946 8.06967 5.35979 8.14C5.43012 8.21032 5.5255 8.24983 5.62495 8.24983H6.9277C7.14145 8.38783 7.3252 8.51683 7.48795 8.63983L4.79995 11.9998H4.64095C4.40707 11.9998 4.17641 12.0544 3.9674 12.1594C3.7584 12.2644 3.57683 12.4168 3.43721 12.6044C3.29759 12.792 3.20379 13.0097 3.16329 13.2401C3.12278 13.4704 3.13671 13.7071 3.20395 13.9311L3.42895 14.6811C3.5217 14.9901 3.7116 15.2609 3.97046 15.4534C4.22932 15.646 4.54335 15.7499 4.86595 15.7498H7.3867C7.70393 15.7498 8.01298 15.8504 8.26945 16.0371L9.91195 17.2311C9.96195 17.2671 10.0127 17.2996 10.0642 17.3286C11.2395 20.3586 12.4792 22.7181 13.8667 23.9053L14.1255 27.0103C13.9401 27.0417 13.7732 27.1415 13.658 27.29C13.5427 27.4386 13.4875 27.625 13.5031 27.8123C13.5188 27.9997 13.6042 28.1743 13.7425 28.3016C13.8809 28.429 14.062 28.4997 14.25 28.4998H16.5V21.7498ZM23.8575 21.7498H21.75C21.75 22.7473 22.8255 23.9998 24.75 23.9998C25.4632 23.9998 26.0602 23.8273 26.529 23.5603C25.4565 23.1328 24.6247 22.4968 23.8582 21.7498" fill="black"/>
</svg>
