<svg width="36" height="36" viewBox="0 0 36 36" fill="none" xmlns="http://www.w3.org/2000/svg">
<path d="M21.7654 6.63398C21.4213 6.46533 21.0431 6.37773 20.6599 6.37793C20.2767 6.37813 19.8987 6.4661 19.5548 6.63511L10.5075 10.9664L10.4996 10.972C10.2412 11.1025 10.0138 11.287 9.83277 11.5129C9.65171 11.7388 9.52118 12.0009 9.45 12.2815C8.87313 12.1344 8.26271 12.1983 7.72875 12.4615L6.62625 12.9902L6.61725 12.9959C5.95913 13.3244 5.51138 13.9971 5.51138 14.7779V16.5734L2.1285 18.2215L2.11725 18.2271C1.82247 18.3708 1.57352 18.5937 1.39827 18.8709C1.22302 19.1481 1.1284 19.4686 1.125 19.7965V21.169C1.125 21.8012 1.4625 22.4436 2.11838 22.771L13.5405 28.387C14.0414 28.6359 14.5932 28.7655 15.1526 28.7655C15.712 28.7655 16.2638 28.6359 16.7648 28.387L33.8602 20.0654L33.8715 20.0597C34.5262 19.7335 34.8638 19.0889 34.8638 18.4577V17.0852C34.86 16.7574 34.7652 16.4371 34.5897 16.1601C34.4143 15.8831 34.1652 15.6604 33.8704 15.517L30.8475 14.0297V12.3377C30.8461 11.9673 30.742 11.6045 30.5468 11.2897C30.3516 10.9749 30.0728 10.7205 29.7416 10.5546L21.7699 6.63736L21.7654 6.63398ZM19.0238 18.1652C19.0238 17.9177 18.9776 17.677 18.891 17.4542L19.2375 17.6252C19.4513 17.7265 19.5863 17.9515 19.5863 18.1877V21.259C19.5863 21.529 19.305 21.709 19.0575 21.5852L19.0238 21.5684V18.1652ZM5.5125 18.9865C5.5125 19.6941 5.91975 20.3151 6.50925 20.6245L6.52163 20.6312L14.8264 24.7105L14.8387 24.7161C15.1066 24.8427 15.3989 24.9091 15.6951 24.9104C15.9914 24.9118 16.2843 24.8482 16.5532 24.724L16.5645 24.7184L17.9955 24.0265L18.0079 24.0197C18.5152 23.7666 18.8561 23.3099 18.9754 22.7912C19.4591 22.9442 19.98 22.906 20.4345 22.699L20.4457 22.6945L29.8237 18.1967L29.8316 18.1922C30.4729 17.8727 30.8475 17.2281 30.8475 16.5452V15.2841L33.3675 16.5216C33.8625 16.7691 33.8625 17.4666 33.3675 17.7141L16.2675 26.0391C15.57 26.3879 14.7375 26.3879 14.04 26.0391L2.62125 20.4265C2.50963 20.3719 2.41558 20.2871 2.3498 20.1817C2.28401 20.0762 2.24913 19.9545 2.24913 19.8302C2.24913 19.706 2.28401 19.5842 2.3498 19.4788C2.41558 19.3734 2.50963 19.2886 2.62125 19.234L5.5125 17.8266V18.9865ZM20.0362 7.64648C20.43 7.45523 20.88 7.45523 21.285 7.64648L29.1712 11.5277C29.3962 11.6402 29.3962 11.9665 29.1712 12.079L20.025 16.4665C19.7437 16.6015 19.4288 16.6015 19.1588 16.4665L11.0813 12.4952C10.8563 12.3827 10.8563 12.0565 11.0813 11.944L20.0362 7.64648ZM6.6375 15.859C6.6375 15.634 6.87375 15.4765 7.0875 15.5777L15.3675 19.6502C15.4546 19.6927 15.5306 19.755 15.5892 19.8322C15.6478 19.9094 15.6875 19.9993 15.705 20.0946V23.2727C15.7047 23.2965 15.707 23.3203 15.7118 23.3436C15.7028 23.4003 15.6805 23.454 15.6467 23.5004C15.613 23.5468 15.5687 23.5845 15.5176 23.6106C15.4665 23.6366 15.4099 23.6501 15.3525 23.65C15.2951 23.65 15.2386 23.6363 15.1875 23.6102L7.0425 19.6052C6.92207 19.5496 6.82 19.4608 6.74827 19.3492C6.67654 19.2376 6.63811 19.1079 6.6375 18.9752V15.859ZM7.2 13.9577L8.2125 13.474C8.60625 13.2827 9.05625 13.2827 9.45 13.474L17.3363 17.344C17.5613 17.4565 17.5613 17.7827 17.3363 17.8952L16.1438 18.4802C15.8625 18.6152 15.5475 18.6152 15.2775 18.4802L7.2 14.509C6.975 14.3965 6.975 14.0702 7.2 13.9577Z" fill="black"/>
</svg>
