<svg width="1920" height="694" viewBox="0 0 1920 694" fill="none" xmlns="http://www.w3.org/2000/svg">
<path d="M131 11.3042C80.4656 9.55077 1.5 11.3042 1.5 11.3042H0V694L1920 693.556V9.52751C1920 9.52751 1810.15 19.6595 1739.5 21.076C1668.85 22.4926 1534.39 -2.46864 1402.5 0.199851C1270.61 2.86834 1163.99 44.0686 1009 46.394C854.015 48.7194 691.182 5.03012 581.5 5.52994C471.818 6.02976 368.335 26.6579 301.5 25.0736C234.665 23.4893 181.534 13.0576 131 11.3042Z" fill="#1F1915"/>
<path d="M0.5 641.009C0.5 641.009 121 420.004 363 456C605 491.996 663 693.508 663 693.508" stroke="#F5B860" stroke-opacity="0.5" stroke-width="2" stroke-dasharray="10 10"/>
<path d="M1 114C1 114 39.9102 84.5011 61 65C82.0898 45.4989 112 12 112 12" stroke="#F5B860" stroke-opacity="0.5" stroke-width="2" stroke-dasharray="10 10"/>
<path d="M667.5 13C667.5 13 652.5 206.5 768 301C883.5 395.5 1007.5 284 1272.5 292.5C1537.5 301 1597.5 693 1597.5 693" stroke="#F5B860" stroke-opacity="0.5" stroke-width="2" stroke-dasharray="10 10"/>
</svg>
