<svg width="1561" height="685" viewBox="0 0 1561 685" fill="none" xmlns="http://www.w3.org/2000/svg">
<rect x="0.777344" y="97" width="1560" height="588" rx="30" fill="#F8EBD9"/>
<path d="M0.777344 513.651C0.777344 513.651 21.8721 487.585 65.5683 487.585C109.264 487.585 250.9 591.348 358.383 568.791C465.866 546.234 533.248 441.845 664.256 423.422C795.265 405 880.226 566.285 1090.67 537.211C1301.12 508.137 1393.03 386.829 1451.79 402.369C1510.56 417.908 1559.78 459.012 1559.78 459.012" stroke="#F5B860" stroke-width="2" stroke-dasharray="10 10"/>
<path d="M0.777344 640.741C0.777344 640.741 43.9991 682.313 145.52 662.779C247.041 643.245 320.418 483.702 423.446 473.45C526.475 463.198 606.094 596.957 740.071 608.184C874.048 619.411 1149.1 441.341 1273.81 451.412C1398.52 461.483 1479.87 521.533 1502.99 533.054C1526.1 544.574 1559.78 533.054 1559.78 533.054" stroke="#F5B860" stroke-width="2" stroke-dasharray="10 10"/>
<path d="M189.277 96.5C189.277 96.5 273.79 144 270.777 226C267.764 308 1.27734 345 1.27734 345" stroke="#F5B860" stroke-width="2" stroke-dasharray="10 10"/>
<path d="M1316.78 168.5C1316.78 168.5 1394.98 167.143 1441.78 156.5C1488.58 145.857 1557.28 114.5 1557.28 114.5" stroke="#F5B860" stroke-width="2" stroke-dasharray="10 10"/>
</svg>
