<svg width="1561" height="590" viewBox="0 0 1561 590" fill="none" xmlns="http://www.w3.org/2000/svg">
<rect x="0.777344" y="1.37158" width="1560" height="588" rx="30" fill="#F8EBD9"/>
<path d="M0.777344 418.023C0.777344 418.023 21.8721 391.957 65.5683 391.957C109.264 391.957 250.9 495.72 358.383 473.163C465.866 450.605 533.248 346.216 664.256 327.794C795.265 309.371 880.226 470.656 1090.67 441.583C1301.12 412.509 1393.03 291.201 1451.79 306.74C1510.56 322.28 1559.78 363.384 1559.78 363.384" stroke="#F5B860" stroke-width="2" stroke-dasharray="10 10"/>
<path d="M0.777344 545.112C0.777344 545.112 43.9991 586.685 145.52 567.151C247.041 547.617 320.418 388.074 423.446 377.822C526.475 367.569 606.094 501.329 740.071 512.556C874.048 523.782 1149.1 345.712 1273.81 355.783C1398.52 365.855 1479.87 425.905 1502.99 437.425C1526.1 448.945 1559.78 437.425 1559.78 437.425" stroke="#F5B860" stroke-width="2" stroke-dasharray="10 10"/>
<path d="M189.277 0.871582C189.277 0.871582 273.79 48.3716 270.777 130.372C267.764 212.372 1.27734 249.372 1.27734 249.372" stroke="#F5B860" stroke-width="2" stroke-dasharray="10 10"/>
<path d="M1316.78 72.8716C1316.78 72.8716 1394.98 71.5145 1441.78 60.8716C1488.58 50.2287 1557.28 18.8716 1557.28 18.8716" stroke="#F5B860" stroke-width="2" stroke-dasharray="10 10"/>
</svg>
