<svg width="112" height="82" viewBox="0 0 112 82" fill="none" xmlns="http://www.w3.org/2000/svg">
<path d="M11 45.5008H22.986C24.7212 45.5008 25.6331 47.5591 24.4674 48.8444L10.8656 63.8412C9.07456 65.816 8.32302 68.5969 9.53232 70.9729C10.1466 72.1798 10.9604 73.4604 12 74.5C13.0393 75.5393 14.4527 76.4863 15.8286 77.2698C18.568 78.83 21.9346 78.0662 24.1638 75.837L46.6569 53.3439C48.1571 51.8436 49 49.8088 49 47.6871V12.187C49 8.31643 46.23 5.00164 42.3987 4.45221C37.5409 3.75558 30.9489 2.9731 26 3.00071C21.0681 3.02822 14.5044 3.79903 9.65143 4.47752C5.79788 5.01627 3 8.34217 3 12.2332V37.5008C3 41.9191 6.58172 45.5008 11 45.5008Z" stroke="#F5B860" stroke-width="6"/>
<path d="M71 45.5008H82.986C84.7212 45.5008 85.6331 47.5591 84.4674 48.8444L70.8656 63.8412C69.0746 65.816 68.323 68.5969 69.5323 70.9729C70.1466 72.1798 70.9604 73.4604 72 74.5C73.0393 75.5393 74.4527 76.4863 75.8286 77.2698C78.568 78.83 81.9346 78.0662 84.1638 75.837L106.657 53.3439C108.157 51.8436 109 49.8088 109 47.6871V12.187C109 8.31643 106.23 5.00164 102.399 4.45221C97.5409 3.75558 90.9489 2.9731 86 3.00071C81.0681 3.02822 74.5044 3.79903 69.6514 4.47752C65.7979 5.01627 63 8.34217 63 12.2332V37.5008C63 41.9191 66.5817 45.5008 71 45.5008Z" stroke="#F5B860" stroke-width="6"/>
</svg>
