<svg width="1561" height="534" viewBox="0 0 1561 534" fill="none" xmlns="http://www.w3.org/2000/svg">
<rect y="0.817871" width="1560" height="531" rx="24" fill="#1F1915"/>
<path d="M18 531.822C18 531.822 33 510.886 57.5 511.822C82 512.759 93.5 531.822 93.5 531.822" stroke="#F5B860" stroke-opacity="0.5" stroke-width="2" stroke-dasharray="10 10"/>
<path d="M1 372.318C1 372.318 244.832 350.155 258 267.818C271.168 185.481 158.5 136.818 148 84.8179C137.5 32.8179 183 0.817871 183 0.817871" stroke="#F5B860" stroke-opacity="0.5" stroke-width="2" stroke-dasharray="10 10"/>
<path d="M1215.5 531.82C1215.5 531.82 1343 438.321 1416 435.32C1489 432.319 1559.5 494.318 1559.5 494.318" stroke="#F5B860" stroke-opacity="0.5" stroke-width="2" stroke-dasharray="10 10"/>
<path d="M1208.5 485.818C1208.5 485.818 1242.45 490.57 1263 497.818C1283.55 505.066 1326.5 532.318 1326.5 532.318" stroke="#F5B860" stroke-opacity="0.5" stroke-width="2" stroke-dasharray="10 10"/>
<path d="M1202.5 1.81787C1202.5 1.81787 1251.5 118.818 1359 164.818C1466.5 210.818 1559 192.818 1559 192.818" stroke="#F5B860" stroke-opacity="0.5" stroke-width="2" stroke-dasharray="10 10"/>
</svg>
