<svg width="36" height="36" viewBox="0 0 36 36" fill="none" xmlns="http://www.w3.org/2000/svg">
<path fill-rule="evenodd" clip-rule="evenodd" d="M5 7.1999C5 6.88167 5.12451 6.57647 5.34615 6.35144C5.56778 6.12642 5.86838 6 6.18182 6H19.1818C19.4953 6 19.7959 6.12642 20.0175 6.35144C20.2391 6.57647 20.3636 6.88167 20.3636 7.1999V13.1994H25.0909C25.8669 13.1994 26.6353 13.3546 27.3522 13.6561C28.0691 13.9576 28.7206 14.3995 29.2693 14.9566C29.818 15.5137 30.2532 16.1751 30.5502 16.903C30.8472 17.6309 31 18.411 31 19.1989V23.9985C31.0003 24.771 30.7559 25.5231 30.3028 26.1436C29.8497 26.7642 29.212 27.2203 28.4839 27.4446C28.2672 28.1705 27.8301 28.8084 27.2351 29.2672C26.64 29.7259 25.9175 29.9821 25.1705 29.9991C24.4236 30.0161 23.6904 29.7931 23.0757 29.362C22.461 28.9308 21.9962 28.3135 21.7475 27.5982H14.2536C14.005 28.3135 13.5402 28.9308 12.9255 29.362C12.3107 29.7931 11.5776 30.0161 10.8307 29.9991C10.0837 29.9821 9.36116 29.7259 8.76613 29.2672C8.1711 28.8084 7.73402 28.1705 7.51727 27.4446C6.78898 27.2205 6.15103 26.7645 5.69771 26.1439C5.24439 25.5233 4.99977 24.7711 5 23.9985V19.1989H12.0909C12.4043 19.1989 12.7049 19.0725 12.9266 18.8475C13.1482 18.6224 13.2727 18.3172 13.2727 17.999C13.2727 17.6808 13.1482 17.3756 12.9266 17.1505C12.7049 16.9255 12.4043 16.7991 12.0909 16.7991H5V14.3993H9.72727C10.0407 14.3993 10.3413 14.2729 10.5629 14.0479C10.7846 13.8228 10.9091 13.5176 10.9091 13.1994C10.9091 12.8812 10.7846 12.576 10.5629 12.3509C10.3413 12.1259 10.0407 11.9995 9.72727 11.9995H5V7.1999ZM20.3636 25.1984H21.7475C21.9812 24.527 22.4057 23.941 22.9674 23.5146C23.5291 23.0882 24.2027 22.8405 24.9031 22.8029C25.6035 22.7652 26.2991 22.9394 26.902 23.3032C27.5049 23.667 27.988 24.2042 28.2901 24.8468C28.5117 24.6218 28.6363 24.3167 28.6364 23.9985V19.1989C28.6364 18.2442 28.2628 17.3286 27.5979 16.6535C26.933 15.9784 26.0312 15.5992 25.0909 15.5992H20.3636V25.1984ZM12.0909 26.3983C12.0909 26.0801 11.9664 25.7749 11.7448 25.5498C11.5231 25.3248 11.2225 25.1984 10.9091 25.1984C10.5957 25.1984 10.2951 25.3248 10.0734 25.5498C9.85179 25.7749 9.72727 26.0801 9.72727 26.3983C9.72727 26.7165 9.85179 27.0217 10.0734 27.2467C10.2951 27.4718 10.5957 27.5982 10.9091 27.5982C11.2225 27.5982 11.5231 27.4718 11.7448 27.2467C11.9664 27.0217 12.0909 26.7165 12.0909 26.3983ZM24.2554 25.55C24.0337 25.7749 23.9092 26.0801 23.9091 26.3983C23.909 26.6759 24.0038 26.9449 24.1772 27.1596C24.3506 27.3742 24.592 27.5211 24.8601 27.5753C25.1283 27.6296 25.4067 27.5877 25.6478 27.4569C25.889 27.3261 26.078 27.1144 26.1827 26.8579C26.2874 26.6015 26.3012 26.3161 26.2219 26.0504C26.1426 25.7848 25.975 25.5552 25.7477 25.401C25.5203 25.2467 25.2474 25.1772 24.9753 25.2044C24.7031 25.2316 24.4487 25.3537 24.2554 25.55Z" fill="black"/>
</svg>
