<svg width="50" height="50" viewBox="0 0 50 50" fill="none" xmlns="http://www.w3.org/2000/svg">
<path fill-rule="evenodd" clip-rule="evenodd" d="M2.08301 6.24984C2.08301 5.6973 2.3025 5.1674 2.6932 4.7767C3.0839 4.386 3.61381 4.1665 4.16634 4.1665H27.083C27.6355 4.1665 28.1654 4.386 28.5561 4.7767C28.9468 5.1674 29.1663 5.6973 29.1663 6.24984V16.6665H37.4997C38.8676 16.6665 40.2222 16.9359 41.486 17.4594C42.7498 17.9829 43.8981 18.7502 44.8654 19.7175C45.8326 20.6848 46.5999 21.8331 47.1234 23.0969C47.6469 24.3607 47.9163 25.7152 47.9163 27.0832V35.4165C47.9169 36.7577 47.486 38.0636 46.6872 39.141C45.8885 40.2185 44.7644 41.0104 43.4809 41.3998C43.0988 42.6603 42.3283 43.7678 41.2794 44.5642C40.2305 45.3607 38.9568 45.8055 37.64 45.8351C36.3233 45.8647 35.0309 45.4775 33.9473 44.7289C32.8636 43.9803 32.0442 42.9085 31.6059 41.6665H18.3955C17.9572 42.9085 17.1378 43.9803 16.0542 44.7289C14.9705 45.4775 13.6781 45.8647 12.3614 45.8351C11.0447 45.8055 9.77094 45.3607 8.72202 44.5642C7.6731 43.7678 6.9026 42.6603 6.52051 41.3998C5.23667 41.0108 4.11206 40.219 3.31294 39.1415C2.51382 38.064 2.0826 36.758 2.08301 35.4165V27.0832H14.583C15.1355 27.0832 15.6654 26.8637 16.0561 26.473C16.4468 26.0823 16.6663 25.5524 16.6663 24.9998C16.6663 24.4473 16.4468 23.9174 16.0561 23.5267C15.6654 23.136 15.1355 22.9165 14.583 22.9165H2.08301V18.7498H10.4163C10.9689 18.7498 11.4988 18.5303 11.8895 18.1396C12.2802 17.7489 12.4997 17.219 12.4997 16.6665C12.4997 16.114 12.2802 15.5841 11.8895 15.1934C11.4988 14.8027 10.9689 14.5832 10.4163 14.5832H2.08301V6.24984ZM29.1663 37.4998H31.6059C32.0178 36.3341 32.7661 35.3167 33.7563 34.5764C34.7465 33.836 35.934 33.406 37.1686 33.3406C38.4032 33.2753 39.6295 33.5776 40.6923 34.2093C41.7551 34.841 42.6066 35.7737 43.1393 36.8894C43.53 36.4988 43.7496 35.969 43.7497 35.4165V27.0832C43.7497 25.4256 43.0912 23.8359 41.9191 22.6638C40.747 21.4916 39.1573 20.8332 37.4997 20.8332H29.1663V37.4998ZM14.583 39.5832C14.583 39.0306 14.3635 38.5007 13.9728 38.11C13.5821 37.7193 13.0522 37.4998 12.4997 37.4998C11.9471 37.4998 11.4172 37.7193 11.0265 38.11C10.6358 38.5007 10.4163 39.0306 10.4163 39.5832C10.4163 40.1357 10.6358 40.6656 11.0265 41.0563C11.4172 41.447 11.9471 41.6665 12.4997 41.6665C13.0522 41.6665 13.5821 41.447 13.9728 41.0563C14.3635 40.6656 14.583 40.1357 14.583 39.5832ZM36.0268 38.1103C35.636 38.5009 35.4165 39.0307 35.4163 39.5832C35.4162 40.0652 35.5833 40.5323 35.889 40.9049C36.1947 41.2776 36.6201 41.5327 37.0928 41.6268C37.5655 41.721 38.0563 41.6483 38.4814 41.4211C38.9065 41.194 39.2397 40.8265 39.4243 40.3812C39.6088 39.936 39.6332 39.4405 39.4934 38.9792C39.3536 38.5179 39.0581 38.1194 38.6574 37.8516C38.2567 37.5837 37.7755 37.4631 37.2958 37.5103C36.8161 37.5574 36.3676 37.7695 36.0268 38.1103Z" fill="#F5B860"/>
</svg>
