<svg width="50" height="50" viewBox="0 0 50 50" fill="none" xmlns="http://www.w3.org/2000/svg">
<path d="M38.5415 6.25H33.3332C33.0569 6.25 32.792 6.35975 32.5966 6.5551C32.4012 6.75045 32.2915 7.0154 32.2915 7.29167V7.41458L39.5832 13.2479V7.29167C39.5832 7.0154 39.4734 6.75045 39.2781 6.5551C39.0827 6.35975 38.8178 6.25 38.5415 6.25Z" fill="#F5B860"/>
<path d="M22.396 19.7917C22.396 19.101 22.6704 18.4386 23.1587 17.9502C23.6471 17.4619 24.3095 17.1875 25.0002 17.1875C25.6908 17.1875 26.3532 17.4619 26.8416 17.9502C27.33 18.4386 27.6043 19.101 27.6043 19.7917C27.6043 20.4823 27.33 21.1447 26.8416 21.6331C26.3532 22.1215 25.6908 22.3958 25.0002 22.3958C24.3095 22.3958 23.6471 22.1215 23.1587 21.6331C22.6704 21.1447 22.396 20.4823 22.396 19.7917Z" fill="#F5B860"/>
<path fill-rule="evenodd" clip-rule="evenodd" d="M43.229 22.8332L44.8582 24.1374C45.1825 24.3901 45.5934 24.5048 46.0017 24.4566C46.41 24.4085 46.7829 24.2013 47.0395 23.88C47.2961 23.5587 47.4157 23.1492 47.3724 22.7403C47.3291 22.3314 47.1264 21.9561 46.8082 21.6957L29.8811 8.15403C28.4957 7.04541 26.7742 6.44141 24.9998 6.44141C23.2255 6.44141 21.504 7.04541 20.1186 8.15403L3.1915 21.6957C2.86772 21.9546 2.66003 22.3314 2.61412 22.7434C2.56821 23.1554 2.68785 23.5688 2.94671 23.8926C3.20557 24.2164 3.58246 24.424 3.99445 24.47C4.40645 24.5159 4.8198 24.3962 5.14359 24.1374L6.77067 22.8332V44.2707H4.1665C3.7521 44.2707 3.35468 44.4353 3.06165 44.7283C2.76862 45.0214 2.604 45.4188 2.604 45.8332C2.604 46.2476 2.76862 46.645 3.06165 46.938C3.35468 47.2311 3.7521 47.3957 4.1665 47.3957H45.8332C46.2476 47.3957 46.645 47.2311 46.938 46.938C47.231 46.645 47.3957 46.2476 47.3957 45.8332C47.3957 45.4188 47.231 45.0214 46.938 44.7283C46.645 44.4353 46.2476 44.2707 45.8332 44.2707H43.229V22.8332ZM19.2707 19.7915C19.2707 18.2721 19.8743 16.8148 20.9487 15.7404C22.0231 14.666 23.4804 14.0624 24.9998 14.0624C26.5193 14.0624 27.9765 14.666 29.051 15.7404C30.1254 16.8148 30.729 18.2721 30.729 19.7915C30.729 21.311 30.1254 22.7682 29.051 23.8427C27.9765 24.9171 26.5193 25.5207 24.9998 25.5207C23.4804 25.5207 22.0231 24.9171 20.9487 23.8427C19.8743 22.7682 19.2707 21.311 19.2707 19.7915ZM25.104 27.604C26.4873 27.604 27.6811 27.604 28.6373 27.7332C29.6623 27.8707 30.6436 28.1811 31.4394 28.9769C32.2353 29.7728 32.5457 30.754 32.6832 31.779C32.804 32.6749 32.8123 33.779 32.8123 35.0561V44.2707H29.6873V35.4165C29.6873 33.8999 29.6832 32.9165 29.5873 32.1957C29.4957 31.5186 29.3498 31.3061 29.229 31.1874C29.1082 31.0686 28.8978 30.9207 28.2207 30.829C27.4978 30.7332 26.5165 30.729 24.9998 30.729C23.4832 30.729 22.4998 30.7332 21.779 30.829C21.1019 30.9207 20.8894 31.0686 20.7707 31.1874C20.6519 31.3061 20.504 31.5186 20.4123 32.1957C20.3165 32.9186 20.3123 33.8999 20.3123 35.4165V44.2707H17.1873V35.3124C17.1873 33.929 17.1873 32.7353 17.3165 31.779C17.454 30.754 17.7644 29.7728 18.5603 28.9769C19.3561 28.1811 20.3394 27.8707 21.3623 27.7332C22.3186 27.604 23.5123 27.604 24.8978 27.604H25.104Z" fill="#F5B860"/>
<path d="M22.396 19.7917C22.396 19.101 22.6704 18.4386 23.1587 17.9502C23.6471 17.4619 24.3095 17.1875 25.0002 17.1875C25.6908 17.1875 26.3532 17.4619 26.8416 17.9502C27.33 18.4386 27.6043 19.101 27.6043 19.7917C27.6043 20.4823 27.33 21.1447 26.8416 21.6331C26.3532 22.1215 25.6908 22.3958 25.0002 22.3958C24.3095 22.3958 23.6471 22.1215 23.1587 21.6331C22.6704 21.1447 22.396 20.4823 22.396 19.7917Z" fill="#F5B860"/>
</svg>
